# xmcd
# 
# Track frame offsets:
#     150
#     19286
#     36427
#     57966
#     73696
#     93910
#     118999
#     133694
#     150757
#     168577
#     189167
#     207381
#     225585
# 
# Disc length: 3252
# 
# Revision: 0
# Processed by: cddbd v1.5.2PL0 Copyright (c) Steve Scherf et al.
# Submitted via: fre:ac v1.0.27
# 
DISCID=af0cb20d
DTITLE=Cyrus James - Dreamers of The Day
DYEAR=2014
DGENRE=Country
TTITLE0=Bad Man
TTITLE1=I Don't Cry When It Rains
TTITLE2=I'll Be The Whiskey
TTITLE3=Blue Collar
TTITLE4=Seems To Me
TTITLE5=Old Friend
TTITLE6=Long Way Down
TTITLE7=Tumbleweed
TTITLE8=My Crutch
TTITLE9=True Love
TTITLE10=Chances
TTITLE11=Maria
TTITLE12=All Along
EXTD=
EXTT0=
EXTT1=
EXTT2=
EXTT3=
EXTT4=
EXTT5=
EXTT6=
EXTT7=
EXTT8=
EXTT9=
EXTT10=
EXTT11=
EXTT12=
PLAYORDER=
